<?xml version="1.0" standalone="no"?><!DOCTYPE svg PUBLIC "-//W3C//DTD SVG 1.1//EN" "http://www.w3.org/Graphics/SVG/1.1/DTD/svg11.dtd"><svg t="1608091237250" class="icon" viewBox="0 0 1024 1024" version="1.1" xmlns="http://www.w3.org/2000/svg" p-id="18551" xmlns:xlink="http://www.w3.org/1999/xlink" width="200" height="200"><defs><style type="text/css"></style></defs><path d="M939.904 726.17984a218.84416 218.84416 0 1 0-218.84416 218.84416 218.84416 218.84416 0 0 0 218.84416-218.84416z" fill="#F4CA1C" p-id="18552"></path><path d="M512 71.68a445.44 445.44 0 1 0 445.44 445.44 445.952 445.952 0 0 0-445.44-445.44z m0 819.03616A373.59616 373.59616 0 1 1 885.59616 517.12 374.016 374.016 0 0 1 512 890.71616z m190.3872-409.51808h-154.46528V326.7328a35.92192 35.92192 0 1 0-71.84384 0v154.46528H321.6128a35.92192 35.92192 0 1 0 0 71.84384h154.46528v154.46528a35.92192 35.92192 0 1 0 71.84384 0v-154.46528h154.46528a35.92192 35.92192 0 1 0 0-71.84384z" fill="#595BB3" p-id="18553"></path></svg>