<?xml version="1.0" standalone="no"?><!DOCTYPE svg PUBLIC "-//W3C//DTD SVG 1.1//EN" "http://www.w3.org/Graphics/SVG/1.1/DTD/svg11.dtd"><svg t="1608091443901" class="icon" viewBox="0 0 1024 1024" version="1.1" xmlns="http://www.w3.org/2000/svg" p-id="19991" xmlns:xlink="http://www.w3.org/1999/xlink" width="200" height="200"><defs><style type="text/css"></style></defs><path d="M223.37024 318.34112S341.71904 286.06976 404.48 305.792s233.1136 141.6448 392.704-44.8256c-3.584 75.30496-6.27712 173.91616-6.27712 173.91616s-37.6576 53.79072-121.93792 71.72096-190.07488-20.61824-230.4-33.17248-149.72928 2.688-168.56064 15.24224c-18.84672-31.37536-46.63808-170.33216-46.63808-170.33216z" fill="#F4CA1C" p-id="19992"></path><path d="M240.59392 485.2992c0.16384 0.65024 0.19456 1.3056 0.39424 1.95584l98.21696 317.78816a35.92192 35.92192 0 0 0 68.64384-21.21216l-77.824-251.74016c71.48032-28.672 126.07488-6.89664 193.29536 20.12672q9.64096 3.88608 19.34848 7.72608a190.68416 190.68416 0 0 0 70.1184 12.32384c96.6144 0 193.98144-57.64096 195.18464-58.368 42.69056-26.16832 43.83744-87.95136 43.63776-99.47136v-271.872c0-46.01856-26.7008-63.26272-38.19008-68.54144-27.93984-12.86656-59.47392-2.81088-77.17376 12.06784-43.68896 35.4304-82.46784 54.5536-112.15872 55.296-28.34432 0.57344-42.14784-5.80608-96.6144-33.47456-12.46208-6.32832-26.624-13.53216-43.1616-21.6832l-0.7168-0.34304c-103.53152-48.25088-226.87744 4.95104-291.20512 40.96a76.288 76.288 0 0 0-35.41504 88.18688c18.95936 62.39744 59.7248 196.17792 83.61984 270.27456zM227.5328 189.48608c42.0608-23.552 148.15232-74.38848 225.39776-38.6816C468.992 158.72 482.816 165.74976 494.9504 171.91424c55.61856 28.25728 83.70176 42.496 130.95424 41.2416 45.88032-1.14176 97.6384-24.66304 153.88672-69.9136v271.62112c0.128 16.22016-5.15072 34.6624-9.344 37.78048-31.7696 19.456-138.5216 65.20832-201.44128 40.448q-9.46176-3.72224-18.85696-7.53664c-46.36672-18.6368-96.41984-38.76352-153.6-38.76352a246.51264 246.51264 0 0 0-87.6544 16.32256c-23.46496-72.82688-64.23552-206.64832-83.13856-268.9536a4.01408 4.01408 0 0 1 1.77664-4.67456zM512 687.4624a35.9168 35.9168 0 1 0 0 71.8336c207.77472 0 341.61664 36.62336 370.20672 60.5952-28.59008 23.96672-162.432 60.5952-370.20672 60.5952-207.1296 0-340.77184-36.39296-369.93024-60.36992 9.87648-7.59808 35.40992-20.992 88.576-33.51552a35.91168 35.91168 0 1 0-16.47616-69.90848C114.84672 740.096 66.56 773.85216 66.56 819.8912 66.56 948.59776 466.432 952.32 512 952.32s445.44-3.72224 445.44-132.4288-399.8464-132.4288-445.44-132.4288z" fill="#595BB3" p-id="19993"></path></svg>