<?xml version="1.0" standalone="no"?><!DOCTYPE svg PUBLIC "-//W3C//DTD SVG 1.1//EN" "http://www.w3.org/Graphics/SVG/1.1/DTD/svg11.dtd"><svg t="1608091192959" class="icon" viewBox="0 0 1024 1024" version="1.1" xmlns="http://www.w3.org/2000/svg" p-id="18231" xmlns:xlink="http://www.w3.org/1999/xlink" width="200" height="200"><defs><style type="text/css"></style></defs><path d="M345.856 528.60928a24.35584 24.35584 0 0 1-17.73056-41.28768l251.00288-258.56a74.27584 74.27584 0 0 1 106.38336 0l251.00288 258.56a24.35584 24.35584 0 0 1-17.73056 41.28768H345.856z" fill="#F4CA1C" p-id="18232"></path><path d="M953.58976 463.18592l-346.29632-355.456a136.87296 136.87296 0 0 0-195.70688 0L65.29536 463.1808A67.67616 67.67616 0 0 0 114.2272 578.048h31.744v244.6336A135.54688 135.54688 0 0 0 281.984 957.44H409.6512a51.11296 51.11296 0 0 0 51.1488-50.9696V644.096h97.28v262.36416a51.11808 51.11808 0 0 0 51.15392 50.97984h115.712a135.54176 135.54176 0 0 0 136.00256-134.7584V578.048h43.7248a67.67616 67.67616 0 0 0 48.91648-114.86208z m-109.87008 46.42304a51.11296 51.11296 0 0 0-51.1488 50.96448v262.10816a67.072 67.072 0 0 1-67.64544 66.34496h-98.4832v-245.61152a67.99872 67.99872 0 0 0-68.12672-67.72224H460.56448a68.00384 68.00384 0 0 0-68.1216 67.72224v245.61152H281.984a67.072 67.072 0 0 1-67.64544-66.34496v-262.10816a51.11296 51.11296 0 0 0-51.1488-50.96448l-47.8976 0.25088 345.2416-354.37056a68.55168 68.55168 0 0 1 97.792 0l345.00096 354.1248h-59.60704z m61.056 1.47968a0.98816 0.98816 0 0 1-0.1024-0.1792l24.44288-23.84896z" fill="#595BB3" p-id="18233"></path></svg>