<?xml version="1.0" standalone="no"?><!DOCTYPE svg PUBLIC "-//W3C//DTD SVG 1.1//EN" "http://www.w3.org/Graphics/SVG/1.1/DTD/svg11.dtd"><svg t="1608091219883" class="icon" viewBox="0 0 1024 1024" version="1.1" xmlns="http://www.w3.org/2000/svg" p-id="18391" xmlns:xlink="http://www.w3.org/1999/xlink" width="200" height="200"><defs><style type="text/css"></style></defs><path d="M942.03904 762.88a179.2 179.2 0 1 0-179.2 179.2 179.2 179.2 0 0 0 179.2-179.2z" fill="#F4CA1C" p-id="18392"></path><path d="M514.56 71.68a442.88 442.88 0 1 0 442.88 442.88A443.392 443.392 0 0 0 514.56 71.68z m0 814.32576a371.44576 371.44576 0 1 1 371.44576-371.44576 371.8656 371.8656 0 0 1-371.44576 371.44576z m0-657.17248a178.78016 178.78016 0 0 0-178.58048 178.58048 35.71712 35.71712 0 1 0 71.43424 0A107.14624 107.14624 0 1 1 514.56 514.56a35.72224 35.72224 0 0 0-35.71712 35.71712c0 1.024 0.21504 1.97632 0.30208 2.97472-0.08192 0.9984-0.30208 1.96096-0.30208 2.97984v95.83616a35.71712 35.71712 0 1 0 71.43424 0V582.4a178.59072 178.59072 0 0 0-35.71712-353.56672z m1.78688 496.45056a41.67168 41.67168 0 1 0 41.66656 41.67168 41.67168 41.67168 0 0 0-41.66656-41.67168z" fill="#595BB3" p-id="18393"></path></svg>