<?xml version="1.0" standalone="no"?><!DOCTYPE svg PUBLIC "-//W3C//DTD SVG 1.1//EN" "http://www.w3.org/Graphics/SVG/1.1/DTD/svg11.dtd"><svg t="1608091485008" class="icon" viewBox="0 0 1024 1024" version="1.1" xmlns="http://www.w3.org/2000/svg" p-id="20311" xmlns:xlink="http://www.w3.org/1999/xlink" width="200" height="200"><defs><style type="text/css"></style></defs><path d="M767.65184 510.29504a259.9168 259.9168 0 1 0-259.9168 260.41856 260.16768 260.16768 0 0 0 259.9168-260.41856z" fill="#F4CA1C" p-id="20312"></path><path d="M417.6896 484.54656c-22.33856 0-48.84992-0.30208-74.752-0.5888-24.69888-0.27648-48.90624-0.55296-68.33664-0.55296a208.42496 208.42496 0 1 1 207.99488-208.42496l0.0512 35.67104c0.08704 44.47744 0.18944 99.84-0.512 138.60352l-0.6144 34.304-34.21696 0.74752c-8.43776 0.16384-18.51392 0.24064-29.61408 0.24064z m-143.10912-346.624a137.06752 137.06752 0 0 0 0 274.12992c19.6608 0 44.14976 0.27648 69.12 0.55296 23.30624 0.26112 47.104 0.512 67.63008 0.57856 0.22016-32.768 0.14848-70.41536 0.08704-102.4l-0.0512-35.80928a137.088 137.088 0 0 0-136.79104-137.05728z m321.50016 346.624c-11.1104 0-21.18144-0.0768-29.63456-0.256l-34.21696-0.74752-0.60928-34.304c-0.6912-38.74816-0.58368-94.06976-0.512-138.5216l0.04608-35.74784a208.02048 208.02048 0 1 1 208.01536 208.42496c-19.456 0-43.63264 0.27136-68.3264 0.55296-25.91744 0.29696-52.43392 0.59904-74.76736 0.59904z m143.104-346.624a137.08288 137.08288 0 0 0-136.79104 137.0624l-0.0512 35.88608c-0.06144 31.9488-0.13824 69.5552 0.08704 102.31296 20.52608-0.04608 44.31872-0.31744 67.62496-0.57856 24.99072-0.2816 49.47456-0.55296 69.12-0.55296a137.0624 137.0624 0 0 0 0.00512-274.13504zM274.57536 952.32a208.42496 208.42496 0 0 1 0-416.8448c19.456 0 43.63776-0.27648 68.33664-0.55296 38.80448-0.43008 78.94528-0.87552 104.40192-0.3328l34.21696 0.75264 0.6144 34.304c0.6912 38.77376 0.5888 94.12608 0.512 138.60352l-0.0512 35.67104A208.45568 208.45568 0 0 1 274.57536 952.32z m136.76032-346.624c-20.52608 0.04608-44.31872 0.31744-67.62496 0.57856-24.9856 0.27648-49.46944 0.55296-69.12 0.55296a137.06752 137.06752 0 1 0 136.80128 137.06752l0.0512-35.80928c0.04608-31.96928 0.11776-69.62176-0.10752-102.38976z m327.84384 346.624a208.45568 208.45568 0 0 1-208.01536-208.41984l-0.04608-35.74784c-0.08704-44.45184-0.19456-99.77856 0.512-138.5216l0.60928-34.304 34.21696-0.75264c25.46176-0.54272 65.59232-0.09728 104.41216 0.3328 24.69376 0.27648 48.896 0.55296 68.3264 0.55296a208.42496 208.42496 0 0 1-0.01536 416.86016z m-136.7552-346.624c-0.22528 32.768-0.14848 70.36416-0.08704 102.31296l0.0512 35.88608a136.79616 136.79616 0 1 0 136.79104-137.06752c-19.65568 0-44.13952-0.27648-69.12-0.55296-23.31648-0.256-47.10912-0.52736-67.6352-0.57856z" fill="#595BB3" p-id="20313"></path></svg>