<?xml version="1.0" standalone="no"?><!DOCTYPE svg PUBLIC "-//W3C//DTD SVG 1.1//EN" "http://www.w3.org/Graphics/SVG/1.1/DTD/svg11.dtd"><svg t="1608091280083" class="icon" viewBox="0 0 1024 1024" version="1.1" xmlns="http://www.w3.org/2000/svg" p-id="19191" xmlns:xlink="http://www.w3.org/1999/xlink" width="200" height="200"><defs><style type="text/css"></style></defs><path d="M514.60096 939.76576l363.43808-451.072v348.37504l-52.41856 91.6992z" fill="#F4CA1C" p-id="19192"></path><path d="M762.78272 154.624h-44.032a96.81408 96.81408 0 0 0-46.92992-51.31776A98.06848 98.06848 0 0 0 578.92352 35.84H445.07648a98.06848 98.06848 0 0 0-92.88192 67.49184A96.81408 96.81408 0 0 0 305.25952 154.624h-44.032C176.47104 154.624 107.52 226.26816 107.52 314.31168v519.30624C107.52 921.6512 176.47104 993.28 261.21728 993.28h501.56544C847.52896 993.28 916.48 921.6512 916.48 833.61792V314.31168c0-88.04352-68.95104-159.68768-153.69728-159.68768z m-372.736 8.86784a34.92864 34.92864 0 0 0 27.21792-31.744 27.96544 27.96544 0 0 1 27.80672-26.0352h133.84704a27.96032 27.96032 0 0 1 27.80672 26.0352 34.93376 34.93376 0 0 0 27.21792 31.744 27.93984 27.93984 0 0 1-6.144 55.1936H396.19072a27.93984 27.93984 0 0 1-6.13888-55.168z m456.59648 670.12608c0 49.50016-37.62176 89.77408-83.86048 89.77408H261.21728c-46.23872 0-83.86048-40.27392-83.86048-89.77408V314.31168c0-49.50528 37.62176-89.7792 83.86048-89.7792h43.32544a97.84832 97.84832 0 0 0 91.648 64.06144h231.62368a97.8432 97.8432 0 0 0 91.648-64.06144h43.33056c46.23872 0 83.86048 40.27392 83.86048 89.7792v519.30624zM739.84 375.65952H279.79264a34.944 34.944 0 0 0 0 69.888H739.84a34.944 34.944 0 0 0 0-69.888z m-460.04736 254.64832h324.74112a34.944 34.944 0 0 0 0-69.88288H279.79264a34.944 34.944 0 0 0 0 69.88288z m383.24736 114.87744H279.79264a34.944 34.944 0 0 0 0 69.88288H663.04a34.944 34.944 0 0 0 0-69.88288z" fill="#595BB3" p-id="19193"></path></svg>