<?xml version="1.0" standalone="no"?><!DOCTYPE svg PUBLIC "-//W3C//DTD SVG 1.1//EN" "http://www.w3.org/Graphics/SVG/1.1/DTD/svg11.dtd"><svg t="1608358237815" class="icon" viewBox="0 0 1024 1024" version="1.1" xmlns="http://www.w3.org/2000/svg" p-id="4769" xmlns:xlink="http://www.w3.org/1999/xlink" width="200" height="200"><defs><style type="text/css"></style></defs><path d="M428.67712 845.79328a37.48864 37.48864 0 0 0 25.728 64.6144h338.2528a116.18816 116.18816 0 0 0 117.00224-115.35872V473.79456a37.30944 37.30944 0 0 0-63.0528-27.136z" fill="#F4CA1C" p-id="4770"></path><path d="M792.97024 71.68H225.90976A159.744 159.744 0 0 0 66.56 231.46496v566.19008A159.744 159.744 0 0 0 225.90976 957.44h567.06048A159.744 159.744 0 0 0 952.32 797.65504V231.46496A159.744 159.744 0 0 0 792.97024 71.68z m-479.0272 72.6016h390.9888v170.68544c0 22.65088-20.5824 41.08288-45.89056 41.08288H359.83872c-25.30816 0-45.89568-18.432-45.89568-41.08288V144.2816z m565.96992 653.37344a87.16288 87.16288 0 0 1-86.94272 87.18336H225.90976a87.16288 87.16288 0 0 1-86.94272-87.18336V231.46496A87.16288 87.16288 0 0 1 225.90976 144.2816h15.62624v170.68544c0 62.68416 53.0688 113.664 118.30272 113.664h299.20256c65.2288 0 118.2976-51.00032 118.2976-113.664V144.2816h15.63136a87.16288 87.16288 0 0 1 86.94272 87.18336v566.19008zM623.67744 319.744a36.2496 36.2496 0 0 0 36.20352-36.3008V213.3504a36.20352 36.20352 0 1 0-72.40192 0v70.0928a36.2496 36.2496 0 0 0 36.1984 36.3008z" fill="#595BB3" p-id="4771"></path></svg>