<?xml version="1.0" standalone="no"?><!DOCTYPE svg PUBLIC "-//W3C//DTD SVG 1.1//EN" "http://www.w3.org/Graphics/SVG/1.1/DTD/svg11.dtd"><svg t="1608091269732" class="icon" viewBox="0 0 1024 1024" version="1.1" xmlns="http://www.w3.org/2000/svg" p-id="19031" xmlns:xlink="http://www.w3.org/1999/xlink" width="200" height="200"><defs><style type="text/css"></style></defs><path d="M982.12352 601.6a184.38656 184.38656 0 1 0-184.38656 183.9616 184.17664 184.17664 0 0 0 184.38656-183.9616z" fill="#F4CA1C" p-id="19032"></path><path d="M804.77184 377.856a303.39584 303.39584 0 0 0-600.86784 2.10944A217.43616 217.43616 0 0 0 35.84 596.33664c2.18624 117.96992 102.0416 213.94432 222.58688 213.94432a34.4064 34.4064 0 1 0 0-68.80768c-83.27168 0-152.23808-65.67936-153.73824-146.432a148.83328 148.83328 0 0 1 121.49248-149.504 55.02976 55.02976 0 0 0 45.056-48.69632 234.496 234.496 0 0 1 466.33984-1.37728 55.40352 55.40352 0 0 0 47.77472 48.90624 149.8112 149.8112 0 0 1 128.80896 147.50208A145.83808 145.83808 0 0 1 870.4 695.54176a156.16 156.16 0 0 1-109.568 45.93152 34.4064 34.4064 0 1 0 0 68.80768 225.536 225.536 0 0 0 158.34112-66.13504A214.12864 214.12864 0 0 0 983.04 591.73376 219.008 219.008 0 0 0 804.77184 377.856zM693.76 780.04224l-146.6368 118.91712a56.02304 56.02304 0 0 1-70.25664 0L330.24 780.04224a34.49344 34.49344 0 1 1 43.65312-53.4272l103.54176 83.968v-310.2208a34.57536 34.57536 0 0 1 69.1456 0v310.22592l103.552-83.968a34.49344 34.49344 0 1 1 43.62752 53.42208z" fill="#595BB3" p-id="19033"></path></svg>