<?xml version="1.0" standalone="no"?><!DOCTYPE svg PUBLIC "-//W3C//DTD SVG 1.1//EN" "http://www.w3.org/Graphics/SVG/1.1/DTD/svg11.dtd"><svg t="1608091371941" class="icon" viewBox="0 0 1024 1024" version="1.1" xmlns="http://www.w3.org/2000/svg" p-id="19671" xmlns:xlink="http://www.w3.org/1999/xlink" width="200" height="200"><defs><style type="text/css"></style></defs><path d="M371.16416 915.39968l456.46336-453.76512-2.41664 382.65344-65.20832 67.49184z m513.4336-669.184l-389.27872 388.49536a73.83552 73.83552 0 0 1-18.70336 13.75744L367.23712 702.976c-11.58656 5.77536-17.76128-0.768-11.68384-12.36992l56.23296-107.32544a74.56768 74.56768 0 0 1 13.312-17.72032l389.74464-388.98176c16.04096-16.01024 35.48672-22.56384 43.42784-14.63296l41.00096 40.91904c7.936 7.91552 1.36704 27.32032-14.67392 43.33056z" fill="#F4CA1C" p-id="19672"></path><path d="M846.8736 448.48128a36.1472 36.1472 0 0 0-36.19328 36.10112v313.9584a86.912 86.912 0 0 1-86.92736 86.7072H220.75392a86.912 86.912 0 0 1-86.92224-86.70208V296.86272a86.912 86.912 0 0 1 86.92224-86.70208H535.552a36.10112 36.10112 0 1 0 0-72.192H220.75392A159.28832 159.28832 0 0 0 61.44 296.86272v501.6832A159.28832 159.28832 0 0 0 220.75392 957.44h502.99904a159.28832 159.28832 0 0 0 159.31904-158.8992v-313.9584a36.15232 36.15232 0 0 0-36.1984-36.10112z m87.94624-276.92032l-82.72896-82.5088a77.48096 77.48096 0 0 0-109.22496 0L353.46944 477.43488l-0.04608 0.0512-0.04096 0.03072c-0.06144 0.06144-0.09728 0.13312-0.15872 0.19456a76.8768 76.8768 0 0 0-20.48 37.27872L302.67392 648.192a56.63232 56.63232 0 0 0 55.26016 68.98688 57.37984 57.37984 0 0 0 10.89024-1.024l137.17504-26.58816a77.056 77.056 0 0 0 39.88992-21.1456l0.08704-0.08192 388.84352-387.83488a76.98432 76.98432 0 0 0 0-108.94336zM394.6752 569.344l57.63584 57.10336-73.728 14.28992z m488.96-339.8656L520.192 591.9232 430.336 502.87616l363.71968-362.76736a4.85888 4.85888 0 0 1 6.85056 0l82.72384 82.50368a4.82816 4.82816 0 0 1 0 6.84032z" fill="#595BB3" p-id="19673"></path></svg>