<?xml version="1.0" standalone="no"?><!DOCTYPE svg PUBLIC "-//W3C//DTD SVG 1.1//EN" "http://www.w3.org/Graphics/SVG/1.1/DTD/svg11.dtd"><svg t="1608091289810" class="icon" viewBox="0 0 1024 1024" version="1.1" xmlns="http://www.w3.org/2000/svg" p-id="19351" xmlns:xlink="http://www.w3.org/1999/xlink" width="200" height="200"><defs><style type="text/css"></style></defs><path d="M850.35008 695.45472a139.50976 139.50976 0 1 0-139.50976 139.55072 139.53024 139.53024 0 0 0 139.50976-139.55072z" fill="#F4CA1C" p-id="19352"></path><path d="M670.208 880.128H220.31872A86.784 86.784 0 0 1 133.632 793.46176V230.53824A86.77888 86.77888 0 0 1 220.31872 143.872h565.4016a86.784 86.784 0 0 1 86.68672 86.67648V519.168a36.096 36.096 0 0 0 72.192 0V230.53824A159.0528 159.0528 0 0 0 785.72032 71.68H220.31872A159.0528 159.0528 0 0 0 61.44 230.53824v562.92352A159.0528 159.0528 0 0 0 220.31872 952.32H670.208a36.09088 36.09088 0 1 0 0-72.192z m60.21632-550.99392a36.09088 36.09088 0 0 0-36.096-36.09088H232.2944a36.09088 36.09088 0 1 0 0 72.192h462.03392a36.09088 36.09088 0 0 0 36.096-36.10112z m-268.288 152.79104a36.09088 36.09088 0 0 0-36.096-36.09088H232.2944a36.09088 36.09088 0 1 0 0 72.192h193.72032a36.09088 36.09088 0 0 0 36.096-36.096z m489.84576 396.66688l-114.06336-114.04288a198.3744 198.3744 0 1 0-51.5584 50.52416l114.57536 114.55488a36.09088 36.09088 0 1 0 51.0464-51.03616z m-402.64192-228.23424a126.34112 126.34112 0 1 1 126.34112 126.34624 126.464 126.464 0 0 1-126.34112-126.35136z m-317.05088-51.712a36.09088 36.09088 0 1 0 0 72.192h95.05792a36.09088 36.09088 0 1 0 0-72.192H232.2944z" fill="#595BB3" p-id="19353"></path></svg>