<?xml version="1.0" standalone="no"?><!DOCTYPE svg PUBLIC "-//W3C//DTD SVG 1.1//EN" "http://www.w3.org/Graphics/SVG/1.1/DTD/svg11.dtd"><svg t="1608091260048" class="icon" viewBox="0 0 1024 1024" version="1.1" xmlns="http://www.w3.org/2000/svg" p-id="18871" xmlns:xlink="http://www.w3.org/1999/xlink" width="200" height="200"><defs><style type="text/css"></style></defs><path d="M942.49472 708.18816a243.61472 243.61472 0 1 0-243.61472 243.86048 243.74272 243.74272 0 0 0 243.61472-243.86048z" fill="#F4CA1C" p-id="18872"></path><path d="M746.92608 144.4864h122.56768a38.9632 38.9632 0 0 0 0-77.9264h-237.0048a61.03552 61.03552 0 0 0-60.8768 61.05088V367.872a38.85568 38.85568 0 1 0 77.70624 0v-187.392c0.09216 0.04096 0.16896 0.1024 0.26112 0.14336a360.09984 360.09984 0 1 1-161.31584-27.74016 38.9632 38.9632 0 0 0-4.49024-77.7984A438.64576 438.64576 0 0 0 71.68 513.33632C71.68 755.38944 268.06272 952.32 509.44 952.32s437.76-196.93056 437.76-438.98368a438.50752 438.50752 0 0 0-200.27392-368.84992z" fill="#595BB3" p-id="18873"></path></svg>