<?xml version="1.0" standalone="no"?><!DOCTYPE svg PUBLIC "-//W3C//DTD SVG 1.1//EN" "http://www.w3.org/Graphics/SVG/1.1/DTD/svg11.dtd"><svg t="1608091251925" class="icon" viewBox="0 0 1024 1024" version="1.1" xmlns="http://www.w3.org/2000/svg" p-id="18711" xmlns:xlink="http://www.w3.org/1999/xlink" width="200" height="200"><defs><style type="text/css"></style></defs><path d="M939.904 731.29984a218.84416 218.84416 0 1 0-218.84416 218.84416 218.84416 218.84416 0 0 0 218.84416-218.84416z" fill="#F4CA1C" p-id="18712"></path><path d="M517.12 962.56a445.44 445.44 0 1 1 445.44-445.44 445.952 445.952 0 0 1-445.44 445.44z m0-819.03104A373.59616 373.59616 0 1 0 890.71616 517.12 374.016 374.016 0 0 0 517.12 143.52896z m190.3872 409.51808h-380.7744a35.92192 35.92192 0 1 1 0-71.84384h380.7744a35.92192 35.92192 0 1 1 0 71.83872z" fill="#595BB3" p-id="18713"></path></svg>