<?xml version="1.0" standalone="no"?><!DOCTYPE svg PUBLIC "-//W3C//DTD SVG 1.1//EN" "http://www.w3.org/Graphics/SVG/1.1/DTD/svg11.dtd"><svg t="1608091471074" class="icon" viewBox="0 0 1024 1024" version="1.1" xmlns="http://www.w3.org/2000/svg" p-id="20151" xmlns:xlink="http://www.w3.org/1999/xlink" width="200" height="200"><defs><style type="text/css"></style></defs><path d="M796.98944 675.51232H368.7424a76.97408 76.97408 0 0 0-77.0048 76.93824v191.58528h505.25184a76.97408 76.97408 0 0 0 77.0048-76.93824v-114.64704a76.97408 76.97408 0 0 0-77.0048-76.93824z" fill="#F4CA1C" p-id="20152"></path><path d="M805.53472 388.9664H310.784V321.29024a197.632 197.632 0 0 1 394.68032-15.2064 33.95072 33.95072 0 0 0 67.70688-5.12 265.55392 265.55392 0 0 0-530.26816 20.3264V388.9664h-24.43776A110.95552 110.95552 0 0 0 107.52 499.67616v357.2992A110.95552 110.95552 0 0 0 218.46528 967.68h587.06944A110.95552 110.95552 0 0 0 916.48 856.97536V499.67616a110.95552 110.95552 0 0 0-110.94528-110.70976z m43.04384 468.00896a43.04384 43.04384 0 0 1-43.04384 42.94656H218.46528a43.04384 43.04384 0 0 1-43.04384-42.94656V499.67616a43.04384 43.04384 0 0 1 43.04384-42.97216h587.06944a43.04384 43.04384 0 0 1 43.04384 42.94656v357.2992z" fill="#595BB3" p-id="20153"></path></svg>